<svg viewBox="0 0 256 98" fill="none" xmlns="http://www.w3.org/2000/svg">
  <path d="M53.5 0C27.6 0 0 16.6 0 27.8c0 5.3 5 13.6 10.3 13.6.5 0 .9 0 .9-.7C11.2 24.6 29.1 8 51.6 8c4.4 0 9.3 2.6 9.3 8.1 0 9-16.4 37.3-34.8 47.5-9.2-13.9 15.5-33.9 8.2-43.1-2.4-3-8.7-2.2-8.2-1.5 6.3 6.3-12.9 26.2-12.9 37.7 0 4.5 3.3 8.6 7.2 9.5-2.4.8-4.7 1.2-7.1 1.2-7.6 0-12.7-5.1-13-2.3C-9e-8 67.4 4.4 81.8 17.4 81.8c23.4 0 52.9-50.1 52.9-62.6C70.3 9.9 64.2 0 53.5 0zM108.577 41.8c-1.1 2.3-6.1 9.5-9.8004 9.5-2.9 0-3.2-1.8-3.2-4.1 0-4.7 3.3-12.3 5.1004-14.1 1.7-1.7-.7004-3.7-3.3004-3.7-2.1 0-5 2.9-7.5 7-.4-3.8-2.2-6.9-7.1-6.9-6.7 0-17.6 11.7-17.6 24.8 0 6.5 4.7 9.7 8.5 9.7 3.5 0 7.1-3 10.1-7.2.2 3.3 2.2 8.4 8.5 8.4 12.4004 0 18.0004-19.4 18.0004-21 0-1.8-1.2-3.4-1.7-2.4zm-29.5004 9.5c-1.9 0-3.3-1.7-3.3-4 0-4.4 4.8-11.6 8.7-11.6 1.8 0 2.3 2.4 2.3 4.8 0 4.8-4.4 10.8-7.7 10.8z" fill="#0E1723"/>
  <path d="M133.713 23.7c-2.7 0-5.7-.1-8.6-.3.9-2.3 1.4-4.4 1.4-6.3 0-2.6-1.1-5.8-5-5.8-2.7 0-5.6 1.1-5.6 1.6v.1c.9 1 1.2 2.3 1.2 4 0 1.7-.3 3.6-.9 5.7-4.1-.3-7.2-.6-7.7-.6-1.4 0-4.7 3.2-4.7 4.6 0 1.1 3.7.7 10.9.7-3.7 11-9.9 19.3-9.9 28.6 0 3.1 1.7 9.2 8.6 9.2 12.4 0 18.1-19.4 18.1-21 0-1.4-.8-2.7-1.3-2.7s-6.1 9.8-10.3 9.8c-2.8 0-3.2-1.8-3.2-4.1 0-5.8 3.3-12.6 6.6-19.8h7.6c1.7 0 3-2.4 3-3.3 0-.2 0-.4-.2-.4z" fill="#0E1723"/>
  <path d="M159.105 31.2c-2.6 0-5.3 3.4-7.8 8.1.1-4.8-1.1-9.8-7.2-9.8-6.8 0-17.6 11.8-17.6 24.8 0 6.6 4.7 9.7 8.4 9.7 3.4 0 6.9-2.7 9.8-6.6-.7 2.8-1.1 4.6-1.1 6.2 0 4 1.8 9.7 8.7 9.7 6.3 0 10.6-8.8 8.3-8.1-2.2.6-5.4-1.5-5.4-10.6 0-7.1 5.4-18 7.2-19.7 1.7-1.8-.7-3.7-3.3-3.7zm-18.7 20.2c-1.9 0-3.4-1.8-3.4-4.1 0-4.4 4.8-11.5 8.8-11.5 1.7 0 2.2 2.4 2.2 4.8 0 4.7-4.4 10.8-7.6 10.8z" fill="#0E1723"/>
  <path d="M168.577 29.9c0 1.5-7.9 18.4-7.9 25.4 0 3.1 4.7 9.9 9.3 9.9 8.3 0 24.8-23.5 24.8-33.1 0-10.2-13.7-10.4-12.8-8 5.7 14.7-5.8 30.8-11.8 30.8-1.1 0-2-6.3-1-8.8 2.8-2.8 7.8-9.5 7.8-10.7 0-5-8.4-7-8.4-5.5z" fill="#0E1723"/>
  <path d="M231.597 67.5c-9.8 0-18.3 1.9-27.1 4.3-2.4-4.4-3.3-9.6-3.3-15.1 0-10.8 8.4-23.1 9.4-24.1 1.2-1.2-.6-3.5-3.8-3.5-5.4 0-15.1 18.7-15.1 32.3 0 4.2 1 8.8 2.9 13.2-13.7 4-29.5 8-52.3 8-19.8 0-20.4-11.2-21.3-12.1-.9-.9-5.3 4.2-5.3 12.2 0 6.6 6.1 15.2 22.6 14.3 19.1-1 41.5-8.9 60.5-15.1 6.5 8.4 17.6 14.8 34.2 13.9 12.4-.6 22.1-5.2 22.1-17.3 0-6.6-10.5-11-23.5-11zm1 16.6c-10.6.5-17.9-1.7-22.8-5.7 8.1-2.4 15.2-4 20.6-4 10 0 19.6 1.7 19.6 5.3 0 1.3-2.5 3.6-17.4 4.4zm-20.1-64.6c3.3 0 8.8-4.5 11.5-10.7 3.2-7.1-9.7-9.2-11.7-5.1-2.9 6.1-3.6 15.8.2 15.8z" fill="#0E1723"/>
  <path d="M225.35 26.3h-.3c-9.2.3-13 13.7-14.1 16.4-1.1 2.7 1 5.5 1.6 3.8.9-2.3 1.7-4.6 2.5-6.6 1.6 6.6 7.9 16.2-1 16.2-4.3 0-7.6-6.5-9.2-4.9-1.5 1.5 1.2 16 10.5 16 8.9 0 12.7-5.1 12.7-10.4 0-5.4-7.2-12.9-7.2-18.7 0-2.1 3.8-5.5 5.9-5.5 2.9 0-2.4 8-1 8 1.5 0 6.7-5 7-7.9.1-2-4.7-6.4-7.4-6.4z" fill="#0E1723"/>
</svg>
